<svg width="289" height="289" viewBox="0 0 289 289" fill="none" xmlns="http://www.w3.org/2000/svg">
<path d="M289 144.5C289 224.305 224.305 289 144.5 289C64.6949 289 0 224.305 0 144.5C0 64.6949 64.6949 0 144.5 0C224.305 0 289 64.6949 289 144.5ZM11.3502 144.5C11.3502 218.037 70.9634 277.65 144.5 277.65C218.037 277.65 277.65 218.037 277.65 144.5C277.65 70.9634 218.037 11.3502 144.5 11.3502C70.9634 11.3502 11.3502 70.9634 11.3502 144.5Z" fill="#C60300"/>
<path d="M250 144.5C250 202.766 202.766 250 144.5 250C86.234 250 39 202.766 39 144.5C39 86.234 86.234 39 144.5 39C202.766 39 250 86.234 250 144.5ZM50.9622 144.5C50.9622 196.16 92.8405 238.038 144.5 238.038C196.16 238.038 238.038 196.16 238.038 144.5C238.038 92.8405 196.16 50.9622 144.5 50.9622C92.8405 50.9622 50.9622 92.8405 50.9622 144.5Z" fill="#C60300"/>
</svg>
